<svg width="96" height="48" viewBox="0 0 96 48" fill="none" xmlns="http://www.w3.org/2000/svg">
<rect width="96" height="48" rx="8" fill="#488EF6"/>
<path d="M39.0253 25.852V31.53H41.2693V25.852H39.0253ZM33.0583 25.189V27.025H47.2873V25.189H33.0583ZM39.0083 18.593V18.967C39.0083 20.429 37.3253 22.214 33.7723 22.622L34.5543 24.39C38.7193 23.897 40.9973 21.602 40.9973 18.967V18.593H39.0083ZM39.2973 18.593V18.967C39.2973 21.534 41.5753 23.914 45.7233 24.39L46.5223 22.622C42.9863 22.214 41.2863 20.395 41.2863 18.967V18.593H39.2973ZM34.3333 17.573V19.358H45.9953V17.573H34.3333ZM39.0253 15.805V18.185H41.2693V15.805H39.0253ZM58.744 15.754V31.496H61.022V15.754H58.744ZM60.427 21.772V23.625H63.198V21.772H60.427ZM54.613 17.386V17.777C54.613 22.044 52.658 24.934 48.527 27.076L49.785 28.793C55.021 26.158 56.823 22.112 56.823 17.386H54.613ZM49.394 17.386V19.205H55.769V17.386H49.394Z" fill="white"/>
</svg>
