<svg width="200" height="48" viewBox="0 0 200 48" fill="none" xmlns="http://www.w3.org/2000/svg">
<g clip-path="url(#clip0_36_1069)">
<path d="M18.25 37.32V10.31H26.56C28.94 10.31 31.06 10.85 32.93 11.91C34.81 12.98 36.27 14.5 37.32 16.47C38.37 18.44 38.9 20.69 38.9 23.2V24.44C38.9 26.95 38.38 29.18 37.35 31.14C36.32 33.09 34.86 34.61 32.98 35.69C31.1 36.77 28.98 37.31 26.62 37.32H18.25ZM23.82 14.81V32.85H26.51C28.69 32.85 30.35 32.14 31.5 30.72C32.65 29.3 33.24 27.26 33.26 24.62V23.19C33.26 20.44 32.69 18.36 31.55 16.95C30.41 15.53 28.75 14.83 26.56 14.83H23.81L23.82 14.81Z" fill="#488EF6"/>
<path d="M63.3899 10.31V28.1C63.3899 31.06 62.4699 33.39 60.6199 35.11C58.7699 36.83 56.2399 37.69 53.0399 37.69C49.8399 37.69 47.3799 36.86 45.5299 35.19C43.6799 33.52 42.7299 31.23 42.6899 28.31V10.31H48.2599V28.14C48.2599 29.91 48.6799 31.2 49.5299 32.01C50.3799 32.82 51.5499 33.23 53.0499 33.23C56.1799 33.23 57.7699 31.58 57.8199 28.29V10.31H63.3999H63.3899Z" fill="#488EF6"/>
<path d="M75.23 10.31L82.17 29.9L89.07 10.31H96.38V37.33H90.8V29.95L91.36 17.2L84.07 37.33H80.25L72.98 17.22L73.54 29.95V37.33H67.97V10.31H75.24H75.23Z" fill="#488EF6"/>
<path d="M106.81 32.85H118.63V37.32H101.24V10.31H106.81V32.85Z" fill="#488EF6"/>
<path d="M127.74 37.32H122.17V10.31H127.74V37.33V37.32Z" fill="#488EF6"/>
<path d="M154.87 37.32H149.3L138.46 19.54V37.32H132.89V10.31H138.46L149.31 28.12V10.31H154.86V37.33L154.87 37.32Z" fill="#488EF6"/>
<path d="M168.19 26.49L165.3 29.61V37.33H159.73V10.31H165.3V22.56L167.75 19.2L174.63 10.31H181.48L171.89 22.31L181.76 37.32H175.14L168.2 26.48L168.19 26.49Z" fill="#488EF6"/>
</g>
<defs>
<clipPath id="clip0_36_1069">
<rect width="200" height="48" fill="white"/>
</clipPath>
</defs>
</svg>
