<svg width="54" height="14" viewBox="0 0 54 14" fill="none" xmlns="http://www.w3.org/2000/svg">
<path d="M1.75 0.758V1.668H11.046V0.758H1.75ZM1.806 4.076V4.972H10.99V4.076H1.806ZM3.668 1.108V4.664H4.83V1.108H3.668ZM7.98 1.108V4.664H9.128V1.108H7.98ZM0.686 6.176V7.1H12.124V6.176H0.686ZM5.824 4.72V6.666H6.972V4.72H5.824ZM2.072 8.094V8.962H9.52V10.026H2.1V12.42H3.248V10.852H10.668V8.094H2.072ZM2.1 12.07V12.952H11.046V12.07H2.1ZM14.2089 9.004V9.984H15.1749C17.5829 9.984 19.1089 9.9 20.9289 9.564L20.8029 8.612C19.0389 8.948 17.5269 9.004 15.1749 9.004H14.2089ZM14.2089 1.64V9.368H15.3569V2.592H19.9629V1.64H14.2089ZM22.8469 0.436V13.12H24.0089V0.436H22.8469ZM19.2209 5.014V5.98H23.3229V5.014H19.2209ZM32.5901 1.22V2.914C32.5901 4.342 31.5961 5.98 29.9301 6.708L30.5601 7.618C32.4221 6.792 33.5141 4.804 33.5141 2.914V1.22H32.5901ZM32.7721 1.22V2.914C32.7721 4.776 33.8221 6.526 35.6421 7.254L36.2721 6.372C34.6481 5.742 33.6961 4.314 33.6961 2.914V1.22H32.7721ZM39.4921 0.449999V8.248H40.5981V0.449999H39.4921ZM37.4761 3.824V4.776H39.8701V3.824H37.4761ZM36.7761 0.688V7.842H37.8821V0.688H36.7761ZM36.4401 8.528C33.8221 8.528 32.2261 9.368 32.2261 10.81C32.2261 12.238 33.8221 13.064 36.4401 13.064C39.0441 13.064 40.6681 12.238 40.6681 10.81C40.6681 9.368 39.0441 8.528 36.4401 8.528ZM36.4401 9.438C38.3441 9.438 39.5061 9.942 39.5061 10.81C39.5061 11.664 38.3441 12.168 36.4401 12.168C34.5361 12.168 33.3601 11.664 33.3601 10.81C33.3601 9.942 34.5361 9.438 36.4401 9.438ZM46.001 1.15V2.452C46.001 4.384 44.741 6.078 42.809 6.764L43.411 7.716C45.581 6.904 46.967 4.902 46.967 2.452V1.15H46.001ZM46.211 1.15V2.41C46.211 4.706 47.569 6.568 49.613 7.338L50.243 6.428C48.395 5.784 47.163 4.202 47.163 2.41V1.15H46.211ZM52.063 0.436V7.926H53.225V0.436H52.063ZM49.067 8.29C46.449 8.29 44.839 9.172 44.839 10.684C44.839 12.196 46.449 13.064 49.067 13.064C51.671 13.064 53.281 12.196 53.281 10.684C53.281 9.172 51.671 8.29 49.067 8.29ZM49.067 9.214C50.971 9.214 52.133 9.76 52.133 10.684C52.133 11.608 50.971 12.154 49.067 12.154C47.163 12.154 46.001 11.608 46.001 10.684C46.001 9.76 47.163 9.214 49.067 9.214ZM49.319 3.11V4.076H52.315V3.11H49.319Z" fill="#1D1D1D"/>
</svg>
