<svg width="55" height="14" viewBox="0 0 55 14" fill="none" xmlns="http://www.w3.org/2000/svg">
<path d="M0.574 10.236V11.748H12.306V10.236H0.574ZM5.488 7.366V10.586H7.35V7.366H5.488ZM1.792 1.234V7.604H11.018V1.234H1.792ZM9.198 2.718V6.134H3.626V2.718H9.198ZM13.4529 6.68V8.164H25.1849V6.68H13.4529ZM14.8669 4.146V5.644H23.8969V4.146H14.8669ZM14.8669 0.758V4.692H16.7289V2.228H23.7849V0.758H14.8669ZM14.8389 11.524V13.022H23.9809V11.524H14.8389ZM14.8389 9.144V11.902H16.6869V9.144H14.8389ZM38.7081 0.296V8.15H40.5841V0.296H38.7081ZM30.4761 6.134V7.632H31.6101C34.2001 7.632 35.9221 7.59 37.8541 7.254L37.6441 5.77C35.7681 6.078 34.1301 6.134 31.6101 6.134H30.4761ZM30.4621 1.052V2.536H34.5921V3.614H30.4761V6.974H32.3101V5H36.4261V1.052H30.4621ZM36.2161 8.388C33.4721 8.388 31.7921 9.27 31.7921 10.824C31.7921 12.364 33.4721 13.26 36.2161 13.26C38.9601 13.26 40.6681 12.364 40.6681 10.824C40.6681 9.27 38.9601 8.388 36.2161 8.388ZM36.2161 9.83C37.9241 9.83 38.8061 10.138 38.8061 10.824C38.8061 11.496 37.9241 11.818 36.2161 11.818C34.5221 11.818 33.6401 11.496 33.6401 10.824C33.6401 10.138 34.5221 9.83 36.2161 9.83ZM44.013 1.416V2.9H52.175V1.416H44.013ZM42.697 10.194V11.72H54.415V10.194H42.697ZM51.391 1.416V2.914C51.391 4.748 51.391 6.638 50.789 9.256L52.623 9.424C53.225 6.596 53.225 4.804 53.225 2.914V1.416H51.391ZM51.783 4.972L43.635 5.238L43.859 6.736L51.783 6.344V4.972Z" fill="#4289F3"/>
</svg>
