<svg width="23" height="12" viewBox="0 0 23 12" fill="none" xmlns="http://www.w3.org/2000/svg">
<path d="M4.3584 0.992188V11H3.09375V2.57129L0.543945 3.50098V2.35938L4.16016 0.992188H4.3584ZM14.5986 9.96094V11H8.08398V10.0908L11.3447 6.46094C11.7458 6.01432 12.0557 5.63607 12.2744 5.32617C12.4977 5.01172 12.6527 4.73145 12.7393 4.48535C12.8304 4.2347 12.876 3.97949 12.876 3.71973C12.876 3.3916 12.8076 3.09538 12.6709 2.83105C12.5387 2.56217 12.3428 2.34798 12.083 2.18848C11.8232 2.02897 11.5088 1.94922 11.1396 1.94922C10.6976 1.94922 10.3285 2.03581 10.0322 2.20898C9.74056 2.3776 9.52181 2.61458 9.37598 2.91992C9.23014 3.22526 9.15723 3.57617 9.15723 3.97266H7.89258C7.89258 3.41211 8.01562 2.89941 8.26172 2.43457C8.50781 1.96973 8.8724 1.60059 9.35547 1.32715C9.83854 1.04915 10.4333 0.910156 11.1396 0.910156C11.7686 0.910156 12.3063 1.02181 12.7529 1.24512C13.1995 1.46387 13.5413 1.77376 13.7783 2.1748C14.0199 2.57129 14.1406 3.03613 14.1406 3.56934C14.1406 3.861 14.0905 4.15723 13.9902 4.45801C13.8945 4.75423 13.7601 5.05046 13.5869 5.34668C13.4183 5.6429 13.2201 5.93457 12.9922 6.22168C12.7689 6.50879 12.5296 6.79134 12.2744 7.06934L9.6084 9.96094H14.5986ZM17.7979 5.40137H18.7002C19.1423 5.40137 19.5068 5.32845 19.7939 5.18262C20.0856 5.03223 20.3021 4.82943 20.4434 4.57422C20.5892 4.31445 20.6621 4.02279 20.6621 3.69922C20.6621 3.31641 20.5983 2.99512 20.4707 2.73535C20.3431 2.47559 20.1517 2.27962 19.8965 2.14746C19.6413 2.0153 19.3177 1.94922 18.9258 1.94922C18.5703 1.94922 18.2559 2.01986 17.9824 2.16113C17.7135 2.29785 17.5016 2.49382 17.3467 2.74902C17.1963 3.00423 17.1211 3.30501 17.1211 3.65137H15.8564C15.8564 3.14551 15.984 2.68522 16.2393 2.27051C16.4945 1.85579 16.8522 1.52539 17.3125 1.2793C17.7773 1.0332 18.3151 0.910156 18.9258 0.910156C19.5273 0.910156 20.0537 1.01725 20.5049 1.23145C20.9561 1.44108 21.307 1.75553 21.5576 2.1748C21.8083 2.58952 21.9336 3.10677 21.9336 3.72656C21.9336 3.97721 21.8743 4.24609 21.7559 4.5332C21.6419 4.81576 21.4619 5.08008 21.2158 5.32617C20.9743 5.57227 20.6598 5.77507 20.2725 5.93457C19.8851 6.08952 19.4202 6.16699 18.8779 6.16699H17.7979V5.40137ZM17.7979 6.44043V5.68164H18.8779C19.5114 5.68164 20.0355 5.75684 20.4502 5.90723C20.8649 6.05762 21.1908 6.25814 21.4277 6.50879C21.6693 6.75944 21.8379 7.03516 21.9336 7.33594C22.0339 7.63216 22.084 7.92839 22.084 8.22461C22.084 8.68945 22.0042 9.10189 21.8447 9.46191C21.6898 9.82194 21.4688 10.1273 21.1816 10.3779C20.8991 10.6286 20.5664 10.8177 20.1836 10.9453C19.8008 11.0729 19.3838 11.1367 18.9326 11.1367C18.4997 11.1367 18.0918 11.0752 17.709 10.9521C17.3307 10.8291 16.9958 10.6514 16.7041 10.4189C16.4124 10.182 16.1846 9.89258 16.0205 9.55078C15.8564 9.20443 15.7744 8.81022 15.7744 8.36816H17.0391C17.0391 8.71452 17.1143 9.01758 17.2646 9.27734C17.4196 9.53711 17.6383 9.73991 17.9209 9.88574C18.208 10.027 18.5452 10.0977 18.9326 10.0977C19.32 10.0977 19.6527 10.0316 19.9307 9.89941C20.2132 9.7627 20.4297 9.55762 20.5801 9.28418C20.735 9.01074 20.8125 8.66667 20.8125 8.25195C20.8125 7.83724 20.7259 7.49772 20.5527 7.2334C20.3796 6.96452 20.1335 6.76628 19.8145 6.63867C19.5 6.50651 19.1286 6.44043 18.7002 6.44043H17.7979Z" fill="#4289F3"/>
</svg>
