<svg width="48" height="48" viewBox="0 0 48 48" fill="none" xmlns="http://www.w3.org/2000/svg">
<circle cx="24" cy="24" r="24" fill="#F5F5F5"/>
<g clip-path="url(#clip0_15_721)">
<path d="M14.6667 35.6667C14.6667 33.1913 15.6501 30.8173 17.4004 29.067C19.1508 27.3167 21.5247 26.3333 24.0001 26.3333C26.4754 26.3333 28.8494 27.3167 30.5997 29.067C32.3501 30.8173 33.3334 33.1913 33.3334 35.6667H31.0001C31.0001 33.8101 30.2626 32.0297 28.9498 30.7169C27.6371 29.4042 25.8566 28.6667 24.0001 28.6667C22.1436 28.6667 20.3631 29.4042 19.0503 30.7169C17.7376 32.0297 17.0001 33.8101 17.0001 35.6667H14.6667ZM24.0001 25.1667C20.1326 25.1667 17.0001 22.0342 17.0001 18.1667C17.0001 14.2992 20.1326 11.1667 24.0001 11.1667C27.8676 11.1667 31.0001 14.2992 31.0001 18.1667C31.0001 22.0342 27.8676 25.1667 24.0001 25.1667ZM24.0001 22.8333C26.5784 22.8333 28.6667 20.745 28.6667 18.1667C28.6667 15.5883 26.5784 13.5 24.0001 13.5C21.4217 13.5 19.3334 15.5883 19.3334 18.1667C19.3334 20.745 21.4217 22.8333 24.0001 22.8333Z" fill="#A1A1A1"/>
</g>
<defs>
<clipPath id="clip0_15_721">
<rect width="28" height="28" fill="white" transform="translate(10 10)"/>
</clipPath>
</defs>
</svg>
